<svg xmlns="http://www.w3.org/2000/svg" viewBox="0 0 64 64"><g id="Layer_31" data-name="Layer 31"><polygon points="47 45 17 45 21 15 43 15 47 45" style="fill:#7a838b"/><path d="M43,14V24a11,11,0,0,1-22,0V14c0-.34.02-.67.05-1h21.9C42.98,13.33,43,13.66,43,14Z" style="fill:#5d6972"/><path d="M21,41H43A12,12,0,0,1,55,53V63a0,0,0,0,1,0,0H9a0,0,0,0,1,0,0V53A12,12,0,0,1,21,41Z" style="fill:#f8c460"/><path d="M22,60A10,10,0,0,1,12,50h0a11.93,11.93,0,0,1,2.153-6.847A11.98,11.98,0,0,0,9,53V63H55V60Z" style="fill:#eaac47"/><polygon points="35 41 32 48 29 41 29 31 35 31 35 41" style="fill:#ffd3b6"/><path d="M29,34.575a10.8,10.8,0,0,0,6,0V31H29Z" style="fill:#f9b995"/><path d="M20,17h2a0,0,0,0,1,0,0v6a0,0,0,0,1,0,0H20a3,3,0,0,1-3-3v0A3,3,0,0,1,20,17Z" style="fill:#f9b995"/><path d="M45,17h2a0,0,0,0,1,0,0v6a0,0,0,0,1,0,0H45a3,3,0,0,1-3-3v0A3,3,0,0,1,45,17Z" transform="translate(89 40) rotate(-180)" style="fill:#ffd3b6"/><path d="M43,12V22a11,11,0,0,1-22,0V12c0-.34.02-.67.05-1h21.9C42.98,11.33,43,11.66,43,12Z" style="fill:#ffd3b6"/><path d="M43,19V14.086C36.667,12.847,21,13,21,13v8.652A11.229,11.229,0,0,0,31.6,32.993a10.987,10.987,0,0,0,9.532-4.861,10.973,10.973,0,0,1-7.283,1.809A11.172,11.172,0,0,1,24,18.735h0a.863.863,0,0,1,.654-.838A31.1,31.1,0,0,1,43,19Z" style="fill:#f9b995"/><path d="M43,12v8l-6.87-1.15A11.99,11.99,0,0,1,29.15,15a12.1,12.1,0,0,1-1.03-1.33L27,12V11H42.95C42.98,11.33,43,11.66,43,12Z" style="fill:#7a838b"/><path d="M27.794,13.184l.326.486a12.03,12.03,0,0,0,3.353,3.342A31.875,31.875,0,0,1,43,19V14.086A56.77,56.77,0,0,0,27.794,13.184Z" style="fill:#5d6972"/><polygon points="26 37 23 41 24 47 29 41 26 37" style="fill:#eaac47"/><polygon points="38 37 41 41 40 47 35 41 38 37" style="fill:#eaac47"/><path d="M32,1h0A11,11,0,0,1,43,12v3a0,0,0,0,1,0,0H21a0,0,0,0,1,0,0V12A11,11,0,0,1,32,1Z" style="fill:#e28b5a"/><path d="M42.82,10.05A57.016,57.016,0,0,0,27.56,9.2,2,2,0,0,1,25.7,6.131,11.035,11.035,0,0,1,33.5,1.11,12.311,12.311,0,0,0,32,1a10.974,10.974,0,0,0-10.82,9.05c-.06.32-.1.64-.13.96-.02.17-.03.33-.04.49S21,15,21,15a31.4,31.4,0,0,1,3-.94A31.015,31.015,0,0,1,43,15V12A11.4,11.4,0,0,0,42.82,10.05Z" style="fill:#bd6f4f"/><path d="M43.468,12.169a56.824,56.824,0,0,0-22.936,0,2,2,0,0,0-.991,3.372L21,17a31.246,31.246,0,0,1,22,0l1.459-1.459A2,2,0,0,0,43.468,12.169Z" style="fill:#e28b5a"/><path d="M22.541,15.541a2,2,0,0,1,.991-3.372A57.526,57.526,0,0,1,33.5,11.038a57.109,57.109,0,0,0-12.968,1.131,2,2,0,0,0-.991,3.372L21,17c.756-.275,1.512-.514,2.268-.732Z" style="fill:#bd6f4f"/><path d="M27,22a1,1,0,0,0,1-1V20a1,1,0,0,0-2,0v1A1,1,0,0,0,27,22Z"/><path d="M47.449,40.8l-2.266-17a3.973,3.973,0,0,0,.02-7.6,3,3,0,0,0,.715-2.955,2.91,2.91,0,0,0-1.951-1.957,11.953,11.953,0,0,0-3.213-7.5A1,1,0,1,0,39.3,5.16a9.968,9.968,0,0,1,2.641,5.721,57.993,57.993,0,0,0-19.869,0A10.011,10.011,0,0,1,32,2a9.9,9.9,0,0,1,4.546,1.09,1,1,0,1,0,.91-1.781A11.872,11.872,0,0,0,32,0,12,12,0,0,0,20.036,11.292a2.912,2.912,0,0,0-1.954,1.958A3,3,0,0,0,18.8,16.2a3.973,3.973,0,0,0,.021,7.6l-2.266,17A13.009,13.009,0,0,0,8,53V63a1,1,0,0,0,1,1H55a1,1,0,0,0,1-1V53A13.009,13.009,0,0,0,47.449,40.8ZM41.5,40l-2.7-3.6a1.036,1.036,0,0,0-1.6,0L36,38V33.3a12.041,12.041,0,0,0,7.416-7.616l1.938,14.54A13.045,13.045,0,0,0,43,40Zm-1.557,1.258-.571,3.427-3.1-3.717L38,38.667ZM32,45.462,30,40.8V33.819a11.14,11.14,0,0,0,4,0V40.8ZM22,17.716a31.523,31.523,0,0,1,6.893-1.535,13.073,13.073,0,0,0,7.071,3.66l.066.011A.9.9,0,0,0,36,20v1a1,1,0,0,0,2,0v-.82l4,.667V22a10,10,0,0,1-20,0Zm20,1.1-5.708-.952a11.026,11.026,0,0,1-4.5-1.853A30.84,30.84,0,0,1,42,17.716ZM46,20a2,2,0,0,1-2,2V18A2,2,0,0,1,46,20ZM20,13.826a.956.956,0,0,1,.735-.677,56.113,56.113,0,0,1,22.536,0,.956.956,0,0,1,.735.677,1,1,0,0,1-.251,1.008l-1.013,1.013a32.275,32.275,0,0,0-21.478,0l-1.013-1.013A1,1,0,0,1,20,13.826ZM18,20a2,2,0,0,1,2-2v4A2,2,0,0,1,18,20Zm2.584,5.684A12.044,12.044,0,0,0,28,33.3V38l-1.2-1.6a1.036,1.036,0,0,0-1.6,0L22.5,40H21a13.045,13.045,0,0,0-2.354.224Zm7.142,15.284-3.1,3.717-.571-3.427L26,38.667ZM10,53A11.013,11.013,0,0,1,21,42h1.153l.861,5.164a1,1,0,0,0,.724.8A1.026,1.026,0,0,0,24,48a1.008,1.008,0,0,0,.769-.359l3.955-4.747L31,48.205V62H16.28l1.572-6.28A5.064,5.064,0,0,0,18,54.508V53a1,1,0,0,0-2,0v1.508a3.021,3.021,0,0,1-.089.727L14.22,62H10Zm44,9H49.78l-1.69-6.765a2.973,2.973,0,0,1-.09-.727V53a1,1,0,0,0-2,0v1.508a5.015,5.015,0,0,0,.149,1.212L47.72,62H33V48.2l2.276-5.31,3.955,4.747A1.008,1.008,0,0,0,40,48a1.026,1.026,0,0,0,.262-.035,1,1,0,0,0,.724-.8L41.847,42H43A11.013,11.013,0,0,1,54,53Z"/><path d="M38,6.3a.994.994,0,0,1-.667-.255,8.056,8.056,0,0,0-1.779-1.208,1,1,0,1,1,.893-1.79,10.011,10.011,0,0,1,2.22,1.509A1,1,0,0,1,38,6.3Z" style="fill:#fff"/></g></svg>